<?xml version="1.0" encoding="UTF-8" standalone="no"?>
<!-- Created with Inkscape (http://www.inkscape.org/) -->
<svg id="svg7384" xmlns:rdf="http://www.w3.org/1999/02/22-rdf-syntax-ns#" xmlns="http://www.w3.org/2000/svg" height="16" width="15.982" version="1.1" xmlns:cc="http://creativecommons.org/ns#" xmlns:dc="http://purl.org/dc/elements/1.1/">
 <metadata id="metadata90">
  <rdf:RDF>
   <cc:Work rdf:about="">
    <dc:format>image/svg+xml</dc:format>
    <dc:type rdf:resource="http://purl.org/dc/dcmitype/StillImage"/>
    <dc:title>Gnome Symbolic Icon Theme</dc:title>
   </cc:Work>
  </rdf:RDF>
 </metadata>
 <title id="title9167">Gnome Symbolic Icon Theme</title>
 <g id="layer12" transform="translate(-160,-668)">
  <path id="rect11749-5-0-1" style="color:#bebebe;fill:#bebebe" d="m163.19 670c-0.67 0-1.19 0.55-1.19 1.22v9.5625c0 0.66976 0.5248 1.2188 1.1875 1.2188h9.625c0.6627 0 1.1875-0.54899 1.1875-1.2188v-9.5625c-0.01-0.67-0.53-1.22-1.2-1.22zm0.8125 2h3v2h-1v1h-2zm5 0h3v3h-2v-1h-1zm-5 5h2v1h1v2h-3zm6 0h2v3h-3v-2h1z"/>
  <rect id="rect3620-5" style="fill:none" rx="0" ry="0" height="16" width="15.982" y="668" x="160"/>
 </g>
</svg>
