/* XPM */
static char *close2[] = {
/* width height ncolors chars_per_pixel */
"23 23 12 1",
/* colors */
"  c #8D8D8D",
". c #F4F4F4",
"X c #EAEAEA",
"o c #E8E8E8",
"O c #E0E0E0",
"+ c #F3EFEC",
"@ c #CCCCCC",
"# c #FFFFFF",
"$ c #F3F3F3",
"% c #E9E9E9",
"& c #DBDBDB",
"* c None",
/* pixels */
"                       ",
"#######################",
"+++++++++++++++++++++++",
"XXXXXXXXXXXXXXXXXXXXXXX",
"XXXXXXXXXXXXXXXXXXXXXXX",
"XXXXXXXXXXXXXXXXXXXXXXX",
"XXXXXXXXXXXXXXXXXXXXXXX",
"XXXXXXXXX&@XXXXX@&XXXXX",
"XXXXXXXXX@@@XXX@@@.XXXX",
"XXXXXXXXXX@@@X@@@..XXXX",
"XXXXXXXXXXX@@@@@..XXXXX",
"%%%%%%%%%%%%@@@$$%%%%%%",
"%%%%%%%%%%%@@@@@%%%%%%%",
"%%%%%%%%%%@@@$@@@%%%%%%",
"XXXXXXXXX@@@..X@@@XXXXX",
"XXXXXXXXX&@..XXX@O.XXXX",
"%%%%%%%%%%$$%%%%%$$%%%%",
"%%%%%%%%%%%%%%%%%%%%%%%",
"%%%%%%%%%%%%%%%%%%%%%%%",
"%%%%%%%%%%%%%%%%%%%%%%%",
"ooooooooooooooooooooooo",
"ooooooooooooooooooooooo",
"***********************"
};
