/* XPM */
static char *menu[] = {
/* width height ncolors chars_per_pixel */
"23 23 8 1",
/* colors */
"  c #8D8D8D",
". c #EAEAEA",
"X c #E8E8E8",
"o c #F3EFEC",
"O c #808080",
"+ c #FFFFFF",
"@ c #E9E9E9",
"# c None",
/* pixels */
"                       ",
"+++++++++++++++++++++++",
"ooooooooooooooooooooooo",
".......................",
".......................",
".......................",
".......................",
".......................",
".......................",
".......................",
".....O.....O...........",
"@@@@OOO@@@OOO@@@@@@@@@@",
"@@@@@OOO@OOO++@@@@@@@@@",
"@@@@@@OOOOO++@@@@@@@@@@",
".......OOO++...........",
"........O++............",
"@@@@@@@@@+@@@@@@@@@@@@@",
"@@@@@@@@@@@@@@@@@@@@@@@",
"@@@@@@@@@@@@@@@@@@@@@@@",
"@@@@@@@@@@@@@@@@@@@@@@@",
"XXXXXXXXXXXXXXXXXXXXXXX",
"XXXXXXXXXXXXXXXXXXXXXXX",
"#######################"
};
