/* XPM */
static char *close[] = {
/* width height ncolors chars_per_pixel */
"23 23 10 1",
/* colors */
"  c #8D8D8D",
". c #EAEAEA",
"X c #E8E8E8",
"o c #F3EFEC",
"O c #C0C0C0",
"+ c #808080",
"@ c #FFFFFF",
"# c #E9E9E9",
"$ c #B5B5B5",
"% c None",
/* pixels */
"                       ",
"@@@@@@@@@@@@@@@@@@@@@@@",
"ooooooooooooooooooooooo",
".......................",
".......................",
".......................",
".......................",
".........$+.....+$.....",
".........+++...+++@....",
"..........+++.+++@@....",
"...........+++++@@.....",
"############+++@@######",
"###########+++++#######",
"##########+++@+++######",
".........+++@@.+++.....",
".........$+@@...+O@....",
"##########@@#####@@####",
"#######################",
"#######################",
"#######################",
"XXXXXXXXXXXXXXXXXXXXXXX",
"XXXXXXXXXXXXXXXXXXXXXXX",
"%%%%%%%%%%%%%%%%%%%%%%%"
};
