/* XPM */
static char * top_right_active_xpm[] = {
"10 23 10 1",
" 	c None",
".	c #8D8D8D",
"+	c #FFFFFF",
"@	c #F1F1F1",
"#	c #EAEAE9",
"$	c #EAE9E9",
"%	c #E9E9E9",
"&	c #E9E8E8",
"*	c #E8E8E8",
"=	c #E7E7E7",
"..........",
"+++++++++.",
"@@@@@@@@@.",
"#########.",
"#########.",
"$$$$$$$$$.",
"$$$$$$$$$.",
"$$$$$$$$$.",
"%%%%%%%%%.",
"%%%%%%%%%.",
"%%%%%%%%%.",
"%%%%%%%%%.",
"%%%%%%%%%.",
"%%%%%%%%%.",
"&&&&&&&&&.",
"*********.",
"*********.",
"*********.",
"*********.",
"*********.",
"=========.",
"=========.",
"=========."};
