<?xml version="1.0" encoding="UTF-8" standalone="no"?>
<!-- Created with Inkscape (http://www.inkscape.org/) -->

<svg
   xmlns:dc="http://purl.org/dc/elements/1.1/"
   xmlns:cc="http://creativecommons.org/ns#"
   xmlns:rdf="http://www.w3.org/1999/02/22-rdf-syntax-ns#"
   xmlns:svg="http://www.w3.org/2000/svg"
   xmlns="http://www.w3.org/2000/svg"
   xmlns:xlink="http://www.w3.org/1999/xlink"
   xmlns:sodipodi="http://sodipodi.sourceforge.net/DTD/sodipodi-0.dtd"
   xmlns:inkscape="http://www.inkscape.org/namespaces/inkscape"
   width="24"
   height="24"
   id="svg1306"
   sodipodi:version="0.32"
   inkscape:version="0.48.0 r9654"
   sodipodi:docname="gwibber.svg"
   inkscape:output_extension="org.inkscape.output.svg.inkscape"
   sodipodi:modified="true"
   version="1.1">
  <defs
     id="defs1308">
    <linearGradient
       inkscape:collect="always"
       id="linearGradient2189">
      <stop
         style="stop-color:#000000;stop-opacity:1;"
         offset="0"
         id="stop2191" />
      <stop
         style="stop-color:#000000;stop-opacity:0;"
         offset="1"
         id="stop2193" />
    </linearGradient>
    <linearGradient
       inkscape:collect="always"
       id="linearGradient2097">
      <stop
         style="stop-color:#ffffff;stop-opacity:1.0000000"
         offset="0"
         id="stop2099" />
      <stop
         style="stop-color:#e7e7e3;stop-opacity:1.0000000"
         offset="1"
         id="stop2101" />
    </linearGradient>
    <radialGradient
       inkscape:collect="always"
       xlink:href="#linearGradient2097"
       id="radialGradient2103"
       cx="16.981855"
       cy="15.445013"
       fx="16.981855"
       fy="15.445013"
       r="20.978409"
       gradientTransform="matrix(1.4952529,0.00420175,-0.00298407,1.0619243,-8.08205,-0.03026207)"
       gradientUnits="userSpaceOnUse" />
    <radialGradient
       inkscape:collect="always"
       xlink:href="#linearGradient2189"
       id="radialGradient2195"
       cx="25.304846"
       cy="44.051216"
       fx="25.304846"
       fy="44.051216"
       r="21.535715"
       gradientTransform="matrix(0.928681,0,0,0.102029,1.804722,37.76401)"
       gradientUnits="userSpaceOnUse" />
    <radialGradient
       inkscape:collect="always"
       xlink:href="#linearGradient4750"
       id="radialGradient1552"
       gradientUnits="userSpaceOnUse"
       gradientTransform="scale(1.036822,0.964486)"
       cx="18.63378"
       cy="17.486208"
       fx="18.934305"
       fy="17.810213"
       r="40.692665" />
    <radialGradient
       inkscape:collect="always"
       xlink:href="#linearGradient4750"
       id="radialGradient1544"
       gradientUnits="userSpaceOnUse"
       gradientTransform="scale(1.036822,0.964486)"
       cx="18.63378"
       cy="17.486208"
       fx="18.934305"
       fy="17.810213"
       r="40.692665" />
    <radialGradient
       inkscape:collect="always"
       xlink:href="#linearGradient4750"
       id="radialGradient1540"
       gradientUnits="userSpaceOnUse"
       gradientTransform="scale(1.036822,0.964486)"
       cx="18.63378"
       cy="17.486208"
       fx="18.934305"
       fy="17.810213"
       r="40.692665" />
    <radialGradient
       inkscape:collect="always"
       xlink:href="#linearGradient4750"
       id="radialGradient1534"
       gradientUnits="userSpaceOnUse"
       gradientTransform="scale(1.036822,0.964486)"
       cx="18.63378"
       cy="17.486208"
       fx="18.934305"
       fy="17.810213"
       r="40.692665" />
    <radialGradient
       inkscape:collect="always"
       xlink:href="#linearGradient4750"
       id="radialGradient1530"
       gradientUnits="userSpaceOnUse"
       gradientTransform="scale(1.036822,0.964486)"
       cx="18.63378"
       cy="17.486208"
       fx="18.934305"
       fy="17.810213"
       r="40.692665" />
    <radialGradient
       inkscape:collect="always"
       xlink:href="#linearGradient4750"
       id="radialGradient1524"
       gradientUnits="userSpaceOnUse"
       gradientTransform="scale(1.036822,0.964486)"
       cx="18.63378"
       cy="17.486208"
       fx="18.934305"
       fy="17.810213"
       r="40.692665" />
    <radialGradient
       inkscape:collect="always"
       xlink:href="#linearGradient4750"
       id="radialGradient1516"
       gradientUnits="userSpaceOnUse"
       gradientTransform="scale(1.036822,0.964486)"
       cx="18.63378"
       cy="17.486208"
       fx="18.934305"
       fy="17.810213"
       r="40.692665" />
    <radialGradient
       inkscape:collect="always"
       xlink:href="#linearGradient4750"
       id="radialGradient1508"
       gradientUnits="userSpaceOnUse"
       gradientTransform="scale(1.036822,0.964486)"
       cx="18.63378"
       cy="17.486208"
       fx="18.934305"
       fy="17.810213"
       r="40.692665" />
    <radialGradient
       inkscape:collect="always"
       xlink:href="#linearGradient4750"
       id="radialGradient1500"
       gradientUnits="userSpaceOnUse"
       gradientTransform="scale(1.036822,0.964486)"
       cx="18.63378"
       cy="17.486208"
       fx="18.934305"
       fy="17.810213"
       r="40.692665" />
    <radialGradient
       inkscape:collect="always"
       xlink:href="#linearGradient4750"
       id="radialGradient1492"
       gradientUnits="userSpaceOnUse"
       gradientTransform="scale(1.036822,0.964486)"
       cx="18.63378"
       cy="17.486208"
       fx="18.934305"
       fy="17.810213"
       r="40.692665" />
    <radialGradient
       inkscape:collect="always"
       xlink:href="#linearGradient4750"
       id="radialGradient1484"
       gradientUnits="userSpaceOnUse"
       gradientTransform="scale(1.036822,0.964486)"
       cx="18.63378"
       cy="17.486208"
       fx="18.934305"
       fy="17.810213"
       r="40.692665" />
    <radialGradient
       inkscape:collect="always"
       xlink:href="#linearGradient4750"
       id="radialGradient1476"
       gradientUnits="userSpaceOnUse"
       gradientTransform="scale(1.036822,0.964486)"
       cx="18.63378"
       cy="17.486208"
       fx="18.934305"
       fy="17.810213"
       r="40.692665" />
    <radialGradient
       inkscape:collect="always"
       xlink:href="#linearGradient4750"
       id="radialGradient1468"
       gradientUnits="userSpaceOnUse"
       gradientTransform="scale(1.036822,0.964486)"
       cx="18.63378"
       cy="17.486208"
       fx="18.934305"
       fy="17.810213"
       r="40.692665" />
    <radialGradient
       gradientUnits="userSpaceOnUse"
       r="40.692665"
       fy="17.810213"
       fx="18.934305"
       cy="17.486208"
       cx="18.63378"
       gradientTransform="scale(1.036822,0.964486)"
       id="radialGradient4756"
       xlink:href="#linearGradient4750"
       inkscape:collect="always" />
    <radialGradient
       gradientUnits="userSpaceOnUse"
       r="32.664848"
       fy="10.476453"
       fx="11.826907"
       cy="10.476453"
       cx="11.826907"
       gradientTransform="scale(1.179536,0.847791)"
       id="radialGradient4356"
       xlink:href="#linearGradient4350"
       inkscape:collect="always" />
    <radialGradient
       gradientUnits="userSpaceOnUse"
       r="43.526714"
       fy="12.142302"
       fx="15.601279"
       cy="12.142302"
       cx="15.601279"
       gradientTransform="scale(0.999989,1.000011)"
       id="radialGradient4132"
       xlink:href="#linearGradient4126"
       inkscape:collect="always" />
    <radialGradient
       gradientUnits="userSpaceOnUse"
       r="12.289036"
       fy="63.965389"
       fx="15.115514"
       cy="63.965389"
       cx="15.115514"
       gradientTransform="scale(1.64399,0.608276)"
       id="radialGradient4120"
       xlink:href="#linearGradient4114"
       inkscape:collect="always" />
    <radialGradient
       gradientUnits="userSpaceOnUse"
       r="29.993349"
       fy="15.716079"
       fx="18.247644"
       cy="15.716079"
       cx="18.247644"
       gradientTransform="scale(0.999989,1.000011)"
       id="radialGradient3968"
       xlink:href="#linearGradient3962"
       inkscape:collect="always" />
    <linearGradient
       id="linearGradient3962">
      <stop
         id="stop3964"
         offset="0.0000000"
         style="stop-color:#d3e9ff;stop-opacity:1.0000000;" />
      <stop
         id="stop4134"
         offset="0.15517241"
         style="stop-color:#d3e9ff;stop-opacity:1.0000000;" />
      <stop
         id="stop4346"
         offset="0.75000000"
         style="stop-color:#4074ae;stop-opacity:1.0000000;" />
      <stop
         id="stop3966"
         offset="1.0000000"
         style="stop-color:#36486c;stop-opacity:1.0000000;" />
    </linearGradient>
    <linearGradient
       id="linearGradient4114"
       inkscape:collect="always">
      <stop
         id="stop4116"
         offset="0"
         style="stop-color:#000000;stop-opacity:1;" />
      <stop
         id="stop4118"
         offset="1"
         style="stop-color:#000000;stop-opacity:0;" />
    </linearGradient>
    <linearGradient
       id="linearGradient4126">
      <stop
         id="stop4128"
         offset="0.0000000"
         style="stop-color:#ffffff;stop-opacity:1.0000000;" />
      <stop
         id="stop4130"
         offset="1.0000000"
         style="stop-color:#ffffff;stop-opacity:0.16494845;" />
    </linearGradient>
    <linearGradient
       id="linearGradient4350"
       inkscape:collect="always">
      <stop
         id="stop4352"
         offset="0"
         style="stop-color:#ffffff;stop-opacity:1;" />
      <stop
         id="stop4354"
         offset="1"
         style="stop-color:#ffffff;stop-opacity:0;" />
    </linearGradient>
    <linearGradient
       id="linearGradient4750">
      <stop
         id="stop4752"
         offset="0"
         style="stop-color:#ffffff;stop-opacity:1;" />
      <stop
         id="stop4758"
         offset="0.37931034"
         style="stop-color:#fefefe;stop-opacity:1.0000000;" />
      <stop
         id="stop4754"
         offset="1.0000000"
         style="stop-color:#1d1d1d;stop-opacity:1.0000000;" />
    </linearGradient>
    <radialGradient
       inkscape:collect="always"
       xlink:href="#linearGradient4750"
       id="radialGradient3155"
       gradientUnits="userSpaceOnUse"
       gradientTransform="scale(1.036822,0.964486)"
       cx="18.63378"
       cy="17.486208"
       fx="18.934305"
       fy="17.810213"
       r="40.692665" />
    <radialGradient
       inkscape:collect="always"
       xlink:href="#linearGradient4750"
       id="radialGradient3157"
       gradientUnits="userSpaceOnUse"
       gradientTransform="scale(1.036822,0.964486)"
       cx="18.63378"
       cy="17.486208"
       fx="18.934305"
       fy="17.810213"
       r="40.692665" />
    <radialGradient
       inkscape:collect="always"
       xlink:href="#linearGradient4750"
       id="radialGradient3159"
       gradientUnits="userSpaceOnUse"
       gradientTransform="scale(1.036822,0.964486)"
       cx="18.63378"
       cy="17.486208"
       fx="18.934305"
       fy="17.810213"
       r="40.692665" />
    <radialGradient
       inkscape:collect="always"
       xlink:href="#linearGradient4750"
       id="radialGradient3161"
       gradientUnits="userSpaceOnUse"
       gradientTransform="scale(1.036822,0.964486)"
       cx="18.63378"
       cy="17.486208"
       fx="18.934305"
       fy="17.810213"
       r="40.692665" />
    <radialGradient
       inkscape:collect="always"
       xlink:href="#linearGradient4750"
       id="radialGradient3163"
       gradientUnits="userSpaceOnUse"
       gradientTransform="scale(1.036822,0.964486)"
       cx="18.63378"
       cy="17.486208"
       fx="18.934305"
       fy="17.810213"
       r="40.692665" />
    <radialGradient
       inkscape:collect="always"
       xlink:href="#linearGradient4750"
       id="radialGradient3165"
       gradientUnits="userSpaceOnUse"
       gradientTransform="scale(1.036822,0.964486)"
       cx="18.63378"
       cy="17.486208"
       fx="18.934305"
       fy="17.810213"
       r="40.692665" />
    <radialGradient
       inkscape:collect="always"
       xlink:href="#linearGradient4750"
       id="radialGradient3167"
       gradientUnits="userSpaceOnUse"
       gradientTransform="scale(1.036822,0.964486)"
       cx="18.63378"
       cy="17.486208"
       fx="18.934305"
       fy="17.810213"
       r="40.692665" />
    <radialGradient
       inkscape:collect="always"
       xlink:href="#linearGradient4750"
       id="radialGradient3169"
       gradientUnits="userSpaceOnUse"
       gradientTransform="scale(1.036822,0.964486)"
       cx="18.63378"
       cy="17.486208"
       fx="18.934305"
       fy="17.810213"
       r="40.692665" />
    <radialGradient
       inkscape:collect="always"
       xlink:href="#linearGradient4750"
       id="radialGradient3171"
       gradientUnits="userSpaceOnUse"
       gradientTransform="scale(1.036822,0.964486)"
       cx="18.63378"
       cy="17.486208"
       fx="18.934305"
       fy="17.810213"
       r="40.692665" />
    <radialGradient
       inkscape:collect="always"
       xlink:href="#linearGradient4750"
       id="radialGradient3173"
       gradientUnits="userSpaceOnUse"
       gradientTransform="scale(1.036822,0.964486)"
       cx="18.63378"
       cy="17.486208"
       fx="18.934305"
       fy="17.810213"
       r="40.692665" />
    <radialGradient
       inkscape:collect="always"
       xlink:href="#linearGradient4750"
       id="radialGradient3175"
       gradientUnits="userSpaceOnUse"
       gradientTransform="scale(1.036822,0.964486)"
       cx="18.63378"
       cy="17.486208"
       fx="18.934305"
       fy="17.810213"
       r="40.692665" />
    <radialGradient
       inkscape:collect="always"
       xlink:href="#linearGradient4750"
       id="radialGradient3177"
       gradientUnits="userSpaceOnUse"
       gradientTransform="scale(1.036822,0.964486)"
       cx="18.63378"
       cy="17.486208"
       fx="18.934305"
       fy="17.810213"
       r="40.692665" />
    <radialGradient
       inkscape:collect="always"
       xlink:href="#linearGradient4750"
       id="radialGradient3179"
       gradientUnits="userSpaceOnUse"
       gradientTransform="scale(1.036822,0.964486)"
       cx="18.63378"
       cy="17.486208"
       fx="18.934305"
       fy="17.810213"
       r="40.692665" />
    <radialGradient
       inkscape:collect="always"
       xlink:href="#linearGradient4750"
       id="radialGradient3181"
       gradientUnits="userSpaceOnUse"
       gradientTransform="scale(1.036822,0.964486)"
       cx="18.63378"
       cy="17.486208"
       fx="18.934305"
       fy="17.810213"
       r="40.692665" />
    <radialGradient
       inkscape:collect="always"
       xlink:href="#linearGradient4750"
       id="radialGradient3183"
       gradientUnits="userSpaceOnUse"
       gradientTransform="scale(1.036822,0.964486)"
       cx="18.63378"
       cy="17.486208"
       fx="18.934305"
       fy="17.810213"
       r="40.692665" />
    <radialGradient
       inkscape:collect="always"
       xlink:href="#linearGradient4750"
       id="radialGradient3185"
       gradientUnits="userSpaceOnUse"
       gradientTransform="scale(1.036822,0.964486)"
       cx="18.63378"
       cy="17.486208"
       fx="18.934305"
       fy="17.810213"
       r="40.692665" />
    <radialGradient
       inkscape:collect="always"
       xlink:href="#linearGradient4750"
       id="radialGradient3187"
       gradientUnits="userSpaceOnUse"
       gradientTransform="scale(1.036822,0.964486)"
       cx="18.63378"
       cy="17.486208"
       fx="18.934305"
       fy="17.810213"
       r="40.692665" />
    <radialGradient
       inkscape:collect="always"
       xlink:href="#linearGradient4750"
       id="radialGradient3189"
       gradientUnits="userSpaceOnUse"
       gradientTransform="scale(1.036822,0.964486)"
       cx="18.63378"
       cy="17.486208"
       fx="18.934305"
       fy="17.810213"
       r="40.692665" />
    <radialGradient
       inkscape:collect="always"
       xlink:href="#linearGradient4750"
       id="radialGradient3191"
       gradientUnits="userSpaceOnUse"
       gradientTransform="scale(1.036822,0.964486)"
       cx="18.63378"
       cy="17.486208"
       fx="18.934305"
       fy="17.810213"
       r="40.692665" />
    <radialGradient
       inkscape:collect="always"
       xlink:href="#linearGradient4750"
       id="radialGradient3193"
       gradientUnits="userSpaceOnUse"
       gradientTransform="scale(1.036822,0.964486)"
       cx="18.63378"
       cy="17.486208"
       fx="18.934305"
       fy="17.810213"
       r="40.692665" />
    <radialGradient
       inkscape:collect="always"
       xlink:href="#linearGradient4750"
       id="radialGradient3195"
       gradientUnits="userSpaceOnUse"
       gradientTransform="scale(1.036822,0.964486)"
       cx="18.63378"
       cy="17.486208"
       fx="18.934305"
       fy="17.810213"
       r="40.692665" />
    <radialGradient
       inkscape:collect="always"
       xlink:href="#linearGradient4750"
       id="radialGradient3197"
       gradientUnits="userSpaceOnUse"
       gradientTransform="scale(1.036822,0.964486)"
       cx="18.63378"
       cy="17.486208"
       fx="18.934305"
       fy="17.810213"
       r="40.692665" />
    <radialGradient
       inkscape:collect="always"
       xlink:href="#linearGradient4750"
       id="radialGradient3199"
       gradientUnits="userSpaceOnUse"
       gradientTransform="scale(1.036822,0.964486)"
       cx="18.63378"
       cy="17.486208"
       fx="18.934305"
       fy="17.810213"
       r="40.692665" />
    <radialGradient
       inkscape:collect="always"
       xlink:href="#linearGradient4750"
       id="radialGradient3201"
       gradientUnits="userSpaceOnUse"
       gradientTransform="scale(1.036822,0.964486)"
       cx="18.63378"
       cy="17.486208"
       fx="18.934305"
       fy="17.810213"
       r="40.692665" />
    <radialGradient
       inkscape:collect="always"
       xlink:href="#linearGradient4750"
       id="radialGradient3203"
       gradientUnits="userSpaceOnUse"
       gradientTransform="scale(1.036822,0.964486)"
       cx="18.63378"
       cy="17.486208"
       fx="18.934305"
       fy="17.810213"
       r="40.692665" />
    <radialGradient
       inkscape:collect="always"
       xlink:href="#linearGradient4750"
       id="radialGradient3205"
       gradientUnits="userSpaceOnUse"
       gradientTransform="scale(1.036822,0.964486)"
       cx="18.63378"
       cy="17.486208"
       fx="18.934305"
       fy="17.810213"
       r="40.692665" />
    <radialGradient
       inkscape:collect="always"
       xlink:href="#linearGradient4750"
       id="radialGradient3207"
       gradientUnits="userSpaceOnUse"
       gradientTransform="scale(1.036822,0.964486)"
       cx="18.63378"
       cy="17.486208"
       fx="18.934305"
       fy="17.810213"
       r="40.692665" />
  </defs>
  <sodipodi:namedview
     id="base"
     pagecolor="#ffffff"
     bordercolor="#666666"
     borderopacity="1.0"
     inkscape:pageopacity="0.0"
     inkscape:pageshadow="2"
     inkscape:zoom="1"
     inkscape:cx="14.215867"
     inkscape:cy="12.78768"
     inkscape:current-layer="layer1"
     showgrid="false"
     inkscape:grid-bbox="true"
     inkscape:document-units="px"
     fill="#3465a4"
     stroke="#888a85"
     inkscape:window-width="1680"
     inkscape:window-height="983"
     inkscape:window-x="0"
     inkscape:window-y="0"
     showguides="true"
     inkscape:guide-bbox="true"
     inkscape:window-maximized="1"
     inkscape:snap-page="false"
     inkscape:showpageshadow="false"
     showborder="true">
    <inkscape:grid
       type="xygrid"
       id="grid3200"
       empspacing="5"
       visible="true"
       enabled="true"
       snapvisiblegridlinesonly="true" />
  </sodipodi:namedview>
  <metadata
     id="metadata1311">
    <rdf:RDF>
      <cc:Work
         rdf:about="">
        <dc:format>image/svg+xml</dc:format>
        <dc:type
           rdf:resource="http://purl.org/dc/dcmitype/StillImage" />
        <dc:title></dc:title>
        <dc:date>March 2006</dc:date>
        <dc:creator>
          <cc:Agent>
            <dc:title>Andreas Nilsson</dc:title>
          </cc:Agent>
        </dc:creator>
        <dc:source>http://tango-project.org</dc:source>
        <dc:subject>
          <rdf:Bag>
            <rdf:li>konversation</rdf:li>
            <rdf:li>chat</rdf:li>
            <rdf:li>irc</rdf:li>
          </rdf:Bag>
        </dc:subject>
        <cc:license
           rdf:resource="http://creativecommons.org/licenses/GPL/2.0/" />
      </cc:Work>
      <cc:License
         rdf:about="http://creativecommons.org/licenses/GPL/2.0/">
        <cc:permits
           rdf:resource="http://web.resource.org/cc/Reproduction" />
        <cc:permits
           rdf:resource="http://web.resource.org/cc/Distribution" />
        <cc:requires
           rdf:resource="http://web.resource.org/cc/Notice" />
        <cc:permits
           rdf:resource="http://web.resource.org/cc/DerivativeWorks" />
        <cc:requires
           rdf:resource="http://web.resource.org/cc/ShareAlike" />
        <cc:requires
           rdf:resource="http://web.resource.org/cc/SourceCode" />
      </cc:License>
    </rdf:RDF>
  </metadata>
  <g
     id="layer1"
     inkscape:label="Layer 1"
     inkscape:groupmode="layer"
     transform="translate(0,-24)">
    <g
       id="g3007"
       transform="matrix(0.55252405,0,0,0.54843125,-0.86618602,22.03808)"
       inkscape:export-filename="/home/ken/src/gwibber/gwibber-trunk/ui/icons/22x22/gwibber.png"
       inkscape:export-xdpi="16.5"
       inkscape:export-ydpi="16.5">
      <path
         d="m 23.518564,4.8925556 c -11.234384,0 -20.4468425,7.5666074 -20.3495187,16.8752114 0.1418084,13.705174 17.4452327,18.634458 25.0646517,16.34786 4.715132,1.546599 5.878537,3.499944 12.791702,3.486649 -4.00609,-2.636752 -3.925541,-4.244959 -3.958041,-7.094424 4.095942,-3.085621 6.800724,-7.795247 6.800725,-12.740085 0,-9.309112 -9.115134,-16.8752112 -20.349519,-16.8752114 z"
         style="fill:url(#radialGradient2103);fill-opacity:1;stroke:#888a85;stroke-width:2.16393805;stroke-linecap:round;stroke-linejoin:round;stroke-miterlimit:4;stroke-opacity:1;stroke-dasharray:none;stroke-dashoffset:0"
         id="path2079"
         inkscape:connector-curvature="0" />
      <path
         sodipodi:nodetypes="cscccsc"
         id="path2095"
         d="m 23.513265,5.8403174 c -10.707513,0 -19.4879281,7.1985366 -19.3951687,16.0543326 0.1351581,13.038501 16.9279097,17.427183 24.1899947,15.251814 4.126332,1.550367 4.478146,2.158822 9.567767,3.146995 -1.744404,-2.037311 -1.841671,-3.808209 -1.855005,-6.163545 3.90385,-2.935524 6.887582,-7.530962 6.887583,-12.235264 0,-8.856279 -8.687654,-16.0543326 -19.395171,-16.0543326 z"
         style="fill:none;stroke:#ffffff;stroke-width:0.94923061;stroke-linecap:round;stroke-linejoin:miter;stroke-miterlimit:4;stroke-opacity:1;stroke-dasharray:none;stroke-dashoffset:0"
         inkscape:connector-curvature="0" />
      <path
         transform="matrix(0.92187292,0,0,1.2800096,-1.0855637,-10.154117)"
         d="m 46.07143,42 c 0,1.499059 -9.641868,2.714286 -21.535715,2.714286 C 12.641868,44.714286 3,43.499059 3,42 c 0,-1.499059 9.641868,-2.714286 21.535715,-2.714286 11.893847,0 21.535715,1.215227 21.535715,2.714286 z"
         sodipodi:ry="2.7142856"
         sodipodi:rx="21.535715"
         sodipodi:cy="42"
         sodipodi:cx="24.535715"
         id="path1314"
         style="opacity:0.2;fill:url(#radialGradient2195);fill-opacity:1;stroke:none"
         sodipodi:type="arc" />
      <g
         transform="matrix(0.60134119,0,0,0.60134119,7.6910829,6.659352)"
         id="g3329"
         inkscape:label="Layer 1">
        <path
           sodipodi:type="arc"
           style="fill:url(#radialGradient4120);fill-opacity:1;stroke:none"
           id="path4112"
           sodipodi:cx="24.849752"
           sodipodi:cy="38.908627"
           sodipodi:rx="20.203051"
           sodipodi:ry="7.4751287"
           d="m 45.052803,38.908627 c 0,4.128399 -9.045214,7.475128 -20.203051,7.475128 -11.157836,0 -20.2030502,-3.346729 -20.2030502,-7.475128 0,-4.1284 9.0452142,-7.475129 20.2030502,-7.475129 11.157837,0 20.203051,3.346729 20.203051,7.475129 z"
           transform="matrix(1,0,0,1.243244,0,-10.27241)" />
        <path
           style="fill:url(#radialGradient3968);fill-opacity:1;fill-rule:nonzero;stroke:#39396c;stroke-miterlimit:4;stroke-opacity:1"
           d="m 43.959853,23.485499 c 0,10.709718 -8.682103,19.391723 -19.390348,19.391723 -10.709226,0 -19.3908387,-8.682103 -19.3908387,-19.391723 0,-10.709227 8.6816127,-19.3903473 19.3908387,-19.3903473 10.708245,0 19.390348,8.6811203 19.390348,19.3903473 l 0,0 z"
           id="path3214"
           inkscape:connector-curvature="0" />
        <path
           sodipodi:type="arc"
           style="opacity:0.42159382;fill:url(#radialGradient4356);fill-opacity:1;stroke:none"
           id="path4348"
           sodipodi:cx="17.778685"
           sodipodi:cy="15.271057"
           sodipodi:rx="12.929953"
           sodipodi:ry="9.2934036"
           d="m 30.708637,15.271057 c 0,5.132605 -5.788937,9.293404 -12.929952,9.293404 -7.141016,0 -12.929953,-4.160799 -12.929953,-9.293404 0,-5.132605 5.788937,-9.2934035 12.929953,-9.2934035 7.141015,0 12.929952,4.1607985 12.929952,9.2934035 z"
           transform="matrix(0.835938,0,0,1,9.886868,0)" />
        <g
           id="g4136"
           style="fill:#000000;fill-opacity:0.71345029;fill-rule:nonzero;stroke:none"
           transform="matrix(0.982371,0,0,0.982371,0.121079,0.232914)">
          <g
             id="g4138">
            <g
               id="g4142">
              <path
                 d="m 44.0713,20.7144 c 0,0.2627 0,0 0,0 l -0.5449,0.6172 c -0.334,-0.3936 -0.709,-0.7246 -1.0898,-1.0703 l -0.8359,0.123 -0.7637,-0.8633 0,1.0684 0.6543,0.4951 0.4355,0.4932 0.582,-0.6582 c 0.1465,0.2744 0.291,0.5488 0.4365,0.8232 l 0,0.8223 -0.6553,0.7402 -1.1992,0.8232 -0.9082,0.9063 -0.582,-0.6602 0.291,-0.7402 -0.5811,-0.6582 -0.9814,-2.0977 -0.8359,-0.9453 -0.2188,0.2461 0.3281,1.1934 0.6172,0.6992 c 0.3525,1.0176 0.7012,1.9902 1.1641,2.9629 0.7178,0 1.3945,-0.0762 2.1074,-0.166 l 0,0.5762 -0.8721,2.1392 -0.7998,0.9043 -0.6543,1.4004 c 0,0.7676 0,1.5352 0,2.3027 l 0.2188,0.9063 -0.3633,0.4102 -0.8008,0.4941 -0.8359,0.6992 0.6914,0.7813 -0.9453,0.8242 0.1816,0.5332 -1.418,1.6055 -0.9443,0 -0.7998,0.4941 -0.5098,0 0,-0.6582 -0.2168,-1.3184 c -0.2813,-0.8262 -0.5742,-1.6465 -0.8721,-2.4668 0,-0.6055 0.0361,-1.2051 0.0723,-1.8105 l 0.3643,-0.8223 -0.5098,-0.9883 0.0371,-1.3574 -0.6914,-0.7813 0.3457,-1.1309 -0.5625,-0.6382 -0.9824,0 -0.3271,-0.3701 -0.9814,0.6177 -0.3994,-0.4536 -0.9092,0.7817 c -0.6172,-0.6997 -1.2354,-1.3989 -1.8535,-2.0981 l -0.7266,-1.7285 0.6543,-0.9863 -0.3633,-0.4111 0.7988,-1.8936 c 0.6563,-0.8164 1.3418,-1.5996 2.0352,-2.3857 l 1.2363,-0.3291 1.3809,-0.1641 0.9453,0.2471 1.3447,1.3564 0.4727,-0.5342 0.6533,-0.082 1.2363,0.4111 0.9453,0 0.6543,-0.5762 0.291,-0.4111 -0.6553,-0.4111 -1.0908,-0.082 c -0.3027,-0.4199 -0.584,-0.8613 -0.9434,-1.2344 l -0.3643,0.1641 -0.1455,1.0703 -0.6543,-0.7402 -0.1445,-0.8242 -0.7266,-0.5742 -0.292,0 0.7275,0.8223 -0.291,0.7402 -0.5811,0.1641 0.3633,-0.7402 -0.6553,-0.3281 -0.5801,-0.6582 -1.0918,0.2461 -0.1445,0.3281 -0.6543,0.4121 -0.3633,0.9053 -0.9082,0.4521 -0.4004,-0.4521 -0.4355,0 0,-1.4814 0.9453,-0.4941 0.7266,0 -0.1465,-0.5752 -0.5801,-0.5762 0.9805,-0.2061 0.5449,-0.6162 0.4355,-0.7412 0.8008,0 -0.2188,-0.5752 0.5098,-0.3291 0,0.6582 1.0898,0.2461 1.0898,-0.9043 0.0732,-0.4121 0.9443,-0.6577 c -0.3418,0.0425 -0.6836,0.0737 -1.0176,0.1646 l 0,-0.7411 0.3633,-0.8228 -0.3633,0 -0.7984,0.7402 -0.2188,0.4116 0.2188,0.5767 -0.3643,0.9863 -0.5811,-0.3291 -0.5078,-0.5752 -0.8008,0.5752 -0.291,-1.3159 1.3809,-0.9048 0,-0.4941 0.873,-0.5757 1.3809,-0.3296 0.9453,0.3296 1.7441,0.3291 -0.4355,0.4932 -0.9453,0 0.9453,0.9873 0.7266,-0.8223 0.2207,-0.3618 c 0,0 2.7871,2.498 4.3799,5.2305 1.5928,2.7334 2.3408,5.9551 2.3408,6.6094 z"
                 id="path4144"
                 inkscape:connector-curvature="0" />
            </g>
          </g>
          <g
             id="g4146">
            <g
               id="g4150">
              <path
                 d="m 26.0703,9.2363 -0.0732,0.4932 0.5098,0.3291 0.8711,-0.5757 -0.4355,-0.4937 -0.582,0.3296 -0.29,-0.0825"
                 id="path4152"
                 inkscape:connector-curvature="0" />
            </g>
          </g>
          <g
             id="g4154">
            <g
               id="g4158">
              <path
                 d="m 26.8701,5.8633 -1.8906,-0.7407 -2.1797,0.2466 -2.6904,0.7402 -0.5088,0.4941 1.6719,1.1514 0,0.6582 -0.6543,0.6582 0.873,1.729 0.5801,-0.3301 0.7285,-1.1514 c 1.123,-0.3472 2.1299,-0.7407 3.1973,-1.2344 l 0.873,-2.2212"
                 id="path4160"
                 inkscape:connector-curvature="0" />
            </g>
          </g>
          <g
             id="g4162">
            <g
               id="g4166">
              <path
                 d="m 28.833,12.7749 -0.291,-0.7412 -0.5098,0.165 0.1465,0.9043 0.6543,-0.3281"
                 id="path4168"
                 inkscape:connector-curvature="0" />
            </g>
          </g>
          <g
             id="g4170">
            <g
               id="g4174">
              <path
                 d="m 29.123,12.6089 -0.1455,0.9883 0.7998,-0.165 0.5811,-0.5752 -0.5088,-0.4941 C 29.6787,11.9078 29.4824,11.483 29.2685,11.0465 l -0.4355,0 0,0.4932 0.29,0.3291 0,0.7402"
                 id="path4176"
                 inkscape:connector-curvature="0" />
            </g>
          </g>
          <g
             id="g4178">
            <g
               id="g4182">
              <path
                 d="m 18.3652,28.2422 -0.582,-1.1523 -1.0903,-0.2466 -0.5815,-1.5625 -1.4536,0.1641 -1.2354,-0.9043 -1.3091,1.1514 0,0.1816 c -0.396,-0.1143 -0.8828,-0.1299 -1.2354,-0.3467 l -0.291,-0.8223 0,-0.9053 -0.8721,0.082 c 0.0728,-0.5762 0.145,-1.1514 0.2183,-1.7275 l -0.5093,0 -0.5083,0.6582 -0.5093,0.2461 -0.7271,-0.4102 -0.0728,-0.9053 0.1455,-0.9873 1.0908,-0.8223 0.8721,0 0.145,-0.4941 1.0903,0.2461 0.7998,0.9883 0.1455,-1.6465 1.3813,-1.1514 0.5088,-1.2344 1.0176,-0.4111 0.5815,-0.8223 1.3081,-0.248 0.6548,-0.9863 c -0.6543,0 -1.3086,0 -1.9629,0 l 1.2358,-0.5762 0.8716,0 1.2363,-0.4121 0.1455,-0.4922 -0.4365,-0.4121 -0.5088,-0.165 0.1455,-0.4932 -0.3633,-0.7402 -0.8726,0.3281 0.1455,-0.6577 -1.0176,-0.5762 -0.7993,1.3979 0.0723,0.4941 -0.7993,0.3301 -0.5093,1.0693 -0.2178,-0.9873 -1.3813,-0.5762 -0.2183,-0.7402 1.8174,-1.0703 0.7998,-0.7402 0.0728,-0.9048 -0.436,-0.2471 -0.5815,-0.0825 -0.3633,0.9053 c 0,0 -0.6079,0.1191 -0.7642,0.1577 -1.9961,1.8394 -6.0293,5.8101 -6.9663,13.3062 0.0371,0.1738 0.6792,1.1816 0.6792,1.1816 l 1.5264,0.9043 1.5264,0.4121 0.6548,0.8232 1.0171,0.7402 0.5815,-0.082 0.436,0.1963 0,0.1328 -0.5811,1.563 -0.4365,0.6582 0.1455,0.3301 -0.3633,1.2324 1.3086,2.3867 1.3081,1.1523 0.582,0.8223 -0.0732,1.7285 0.4365,0.9863 -0.4365,1.8926 c 0,0 -0.0342,-0.0117 0.0215,0.1777 0.0562,0.1895 2.3291,1.4512 2.4736,1.3438 0.144,-0.1094 0.2671,-0.2051 0.2671,-0.2051 l -0.145,-0.4102 0.5811,-0.5762 0.2183,-0.5762 0.9453,-0.3301 0.7266,-1.8105 -0.2178,-0.4922 0.5078,-0.7402 1.0908,-0.248 0.582,-1.3164 -0.1455,-1.6445 0.8721,-1.2344 0.1455,-1.2344 C 20.7331,29.4607 19.5495,28.8513 18.365,28.242"
                 id="path4184"
                 inkscape:connector-curvature="0" />
            </g>
          </g>
          <g
             id="g4186">
            <g
               id="g4190">
              <path
                 d="m 16.7656,9.5649 0.7266,0.4937 0.582,0 0,-0.5757 -0.7266,-0.3291 -0.582,0.4111"
                 id="path4192"
                 inkscape:connector-curvature="0" />
            </g>
          </g>
          <g
             id="g4194">
            <g
               id="g4198">
              <path
                 d="m 14.876,8.9072 -0.3638,0.9048 0.7271,0 0.3638,-0.8228 C 15.9166,8.7675 16.2286,8.5444 16.5479,8.331 l 0.7271,0.2471 c 0.4844,0.3291 0.9688,0.6582 1.4536,0.9868 L 19.4561,8.9072 18.6558,8.5781 18.292,7.8374 16.9111,7.6728 16.8383,7.2612 16.184,7.4262 15.8936,8.002 15.5298,7.2613 l -0.145,0.3291 0.0728,0.8228 -0.5816,0.494"
                 id="path4200"
                 inkscape:connector-curvature="0" />
            </g>
          </g>
          <g
             id="g4202">
            <g
               style="opacity:0.75"
               id="g4204">
              <path
                 id="path4206"
                 d=""
                 inkscape:connector-curvature="0" />
            </g>
            <g
               id="g4208">
              <path
                 id="path4210"
                 d=""
                 inkscape:connector-curvature="0" />
            </g>
          </g>
          <g
             id="g4212">
            <g
               style="opacity:0.75"
               id="g4214">
              <path
                 id="path4216"
                 d=""
                 inkscape:connector-curvature="0" />
            </g>
            <g
               id="g4218">
              <path
                 id="path4220"
                 d=""
                 inkscape:connector-curvature="0" />
            </g>
          </g>
          <g
             id="g4222">
            <g
               id="g4226">
              <path
                 d="M 17.4922,6.8496 17.856,6.521 18.5831,6.3564 c 0.498,-0.2422 0.998,-0.4053 1.5264,-0.5762 l -0.29,-0.4937 -0.9385,0.1348 -0.4434,0.4419 -0.731,0.106 -0.6499,0.3052 -0.3159,0.1528 -0.1929,0.2583 0.9443,0.1641"
                 id="path4228"
                 inkscape:connector-curvature="0" />
            </g>
          </g>
          <g
             id="g4230">
            <g
               id="g4234">
              <path
                 d="m 18.7285,14.6665 0.4365,-0.6582 -0.6548,-0.4932 0.2183,1.1514"
                 id="path4236"
                 inkscape:connector-curvature="0" />
            </g>
          </g>
        </g>
        <g
           id="g3216"
           style="color:#000000;fill:url(#radialGradient3207);fill-opacity:1;fill-rule:nonzero;stroke:none;stroke-width:1.01794541;marker:none;visibility:visible;display:inline;overflow:visible"
           transform="matrix(0.982371,0,0,0.982371,-0.08095179,0.030883)">
          <g
             id="g3218"
             style="color:#000000;fill:url(#radialGradient3157);marker:none;visibility:visible;display:inline;overflow:visible">
            <g
               id="g3222"
               style="color:#000000;fill:url(#radialGradient3155);marker:none;visibility:visible;display:inline;overflow:visible">
              <path
                 d="m 44.0713,20.7144 c 0,0.2627 0,0 0,0 l -0.5449,0.6172 c -0.334,-0.3936 -0.709,-0.7246 -1.0898,-1.0703 l -0.8359,0.123 -0.7637,-0.8633 0,1.0684 0.6543,0.4951 0.4355,0.4932 0.582,-0.6582 c 0.1465,0.2744 0.291,0.5488 0.4365,0.8232 l 0,0.8223 -0.6553,0.7402 -1.1992,0.8232 -0.9082,0.9063 -0.582,-0.6602 0.291,-0.7402 -0.5811,-0.6582 -0.9814,-2.0977 -0.8359,-0.9453 -0.2188,0.2461 0.3281,1.1934 0.6172,0.6992 c 0.3525,1.0176 0.7012,1.9902 1.1641,2.9629 0.7178,0 1.3945,-0.0762 2.1074,-0.166 l 0,0.5762 -0.8721,2.1392 -0.7998,0.9043 -0.6543,1.4004 c 0,0.7676 0,1.5352 0,2.3027 l 0.2188,0.9063 -0.3633,0.4102 -0.8008,0.4941 -0.8359,0.6992 0.6914,0.7813 -0.9453,0.8242 0.1816,0.5332 -1.418,1.6055 -0.9443,0 -0.7998,0.4941 -0.5098,0 0,-0.6582 -0.2168,-1.3184 c -0.2813,-0.8262 -0.5742,-1.6465 -0.8721,-2.4668 0,-0.6055 0.0361,-1.2051 0.0723,-1.8105 l 0.3643,-0.8223 -0.5098,-0.9883 0.0371,-1.3574 -0.6914,-0.7813 0.3457,-1.1309 -0.5625,-0.6382 -0.9824,0 -0.3271,-0.3701 -0.9814,0.6177 -0.3994,-0.4536 -0.9092,0.7817 c -0.6172,-0.6997 -1.2354,-1.3989 -1.8535,-2.0981 l -0.7266,-1.7285 0.6543,-0.9863 -0.3633,-0.4111 0.7988,-1.8936 c 0.6563,-0.8164 1.3418,-1.5996 2.0352,-2.3857 l 1.2363,-0.3291 1.3809,-0.1641 0.9453,0.2471 1.3447,1.3564 0.4727,-0.5342 0.6533,-0.082 1.2363,0.4111 0.9453,0 0.6543,-0.5762 0.291,-0.4111 -0.6553,-0.4111 -1.0908,-0.082 c -0.3027,-0.4199 -0.584,-0.8613 -0.9434,-1.2344 l -0.3643,0.1641 -0.1455,1.0703 -0.6543,-0.7402 -0.1445,-0.8242 -0.7266,-0.5742 -0.292,0 0.7275,0.8223 -0.291,0.7402 -0.5811,0.1641 0.3633,-0.7402 -0.6553,-0.3281 -0.5801,-0.6582 -1.0918,0.2461 -0.1445,0.3281 -0.6543,0.4121 -0.3633,0.9053 -0.9082,0.4521 -0.4004,-0.4521 -0.4355,0 0,-1.4814 0.9453,-0.4941 0.7266,0 -0.1465,-0.5752 -0.5801,-0.5762 0.9805,-0.2061 0.5449,-0.6162 0.4355,-0.7412 0.8008,0 -0.2188,-0.5752 0.5098,-0.3291 0,0.6582 1.0898,0.2461 1.0898,-0.9043 0.0732,-0.4121 0.9443,-0.6577 c -0.3418,0.0425 -0.6836,0.0737 -1.0176,0.1646 l 0,-0.7411 0.3633,-0.8228 -0.3633,0 -0.7984,0.7402 -0.2188,0.4116 0.2188,0.5767 -0.3643,0.9863 -0.5811,-0.3291 -0.5078,-0.5752 -0.8008,0.5752 -0.291,-1.3159 1.3809,-0.9048 0,-0.4941 0.873,-0.5757 1.3809,-0.3296 0.9453,0.3296 1.7441,0.3291 -0.4355,0.4932 -0.9453,0 0.9453,0.9873 0.7266,-0.8223 0.2207,-0.3618 c 0,0 2.7871,2.498 4.3799,5.2305 1.5928,2.7334 2.3408,5.9551 2.3408,6.6094 z"
                 id="path3224"
                 style="color:#000000;fill:url(#radialGradient1468);marker:none;visibility:visible;display:inline;overflow:visible"
                 inkscape:connector-curvature="0" />
            </g>
          </g>
          <g
             id="g3226"
             style="color:#000000;fill:url(#radialGradient3161);marker:none;visibility:visible;display:inline;overflow:visible">
            <g
               id="g3230"
               style="color:#000000;fill:url(#radialGradient3159);marker:none;visibility:visible;display:inline;overflow:visible">
              <path
                 d="m 26.0703,9.2363 -0.0732,0.4932 0.5098,0.3291 0.8711,-0.5757 -0.4355,-0.4937 -0.582,0.3296 -0.29,-0.0825"
                 id="path3232"
                 style="color:#000000;fill:url(#radialGradient1476);marker:none;visibility:visible;display:inline;overflow:visible"
                 inkscape:connector-curvature="0" />
            </g>
          </g>
          <g
             id="g3234"
             style="color:#000000;fill:url(#radialGradient3165);marker:none;visibility:visible;display:inline;overflow:visible">
            <g
               id="g3238"
               style="color:#000000;fill:url(#radialGradient3163);marker:none;visibility:visible;display:inline;overflow:visible">
              <path
                 d="m 26.8701,5.8633 -1.8906,-0.7407 -2.1797,0.2466 -2.6904,0.7402 -0.5088,0.4941 1.6719,1.1514 0,0.6582 -0.6543,0.6582 0.873,1.729 0.5801,-0.3301 0.7285,-1.1514 c 1.123,-0.3472 2.1299,-0.7407 3.1973,-1.2344 l 0.873,-2.2212"
                 id="path3240"
                 style="color:#000000;fill:url(#radialGradient1484);marker:none;visibility:visible;display:inline;overflow:visible"
                 inkscape:connector-curvature="0" />
            </g>
          </g>
          <g
             id="g3242"
             style="color:#000000;fill:url(#radialGradient3169);marker:none;visibility:visible;display:inline;overflow:visible">
            <g
               id="g3246"
               style="color:#000000;fill:url(#radialGradient3167);marker:none;visibility:visible;display:inline;overflow:visible">
              <path
                 d="m 28.833,12.7749 -0.291,-0.7412 -0.5098,0.165 0.1465,0.9043 0.6543,-0.3281"
                 id="path3248"
                 style="color:#000000;fill:url(#radialGradient1492);marker:none;visibility:visible;display:inline;overflow:visible"
                 inkscape:connector-curvature="0" />
            </g>
          </g>
          <g
             id="g3250"
             style="color:#000000;fill:url(#radialGradient3173);marker:none;visibility:visible;display:inline;overflow:visible">
            <g
               id="g3254"
               style="color:#000000;fill:url(#radialGradient3171);marker:none;visibility:visible;display:inline;overflow:visible">
              <path
                 d="m 29.123,12.6089 -0.1455,0.9883 0.7998,-0.165 0.5811,-0.5752 -0.5088,-0.4941 C 29.6787,11.9078 29.4824,11.483 29.2685,11.0465 l -0.4355,0 0,0.4932 0.29,0.3291 0,0.7402"
                 id="path3256"
                 style="color:#000000;fill:url(#radialGradient1500);marker:none;visibility:visible;display:inline;overflow:visible"
                 inkscape:connector-curvature="0" />
            </g>
          </g>
          <g
             id="g3258"
             style="color:#000000;fill:url(#radialGradient3177);marker:none;visibility:visible;display:inline;overflow:visible">
            <g
               id="g3262"
               style="color:#000000;fill:url(#radialGradient3175);marker:none;visibility:visible;display:inline;overflow:visible">
              <path
                 d="m 18.3652,28.2422 -0.582,-1.1523 -1.0903,-0.2466 -0.5815,-1.5625 -1.4536,0.1641 -1.2354,-0.9043 -1.3091,1.1514 0,0.1816 c -0.396,-0.1143 -0.8828,-0.1299 -1.2354,-0.3467 l -0.291,-0.8223 0,-0.9053 -0.8721,0.082 c 0.0728,-0.5762 0.145,-1.1514 0.2183,-1.7275 l -0.5093,0 -0.5083,0.6582 -0.5093,0.2461 -0.7271,-0.4102 -0.0728,-0.9053 0.1455,-0.9873 1.0908,-0.8223 0.8721,0 0.145,-0.4941 1.0903,0.2461 0.7998,0.9883 0.1455,-1.6465 1.3813,-1.1514 0.5088,-1.2344 1.0176,-0.4111 0.5815,-0.8223 1.3081,-0.248 0.6548,-0.9863 c -0.6543,0 -1.3086,0 -1.9629,0 l 1.2358,-0.5762 0.8716,0 1.2363,-0.4121 0.1455,-0.4922 -0.4365,-0.4121 -0.5088,-0.165 0.1455,-0.4932 -0.3633,-0.7402 -0.8726,0.3281 0.1455,-0.6577 -1.0176,-0.5762 -0.7993,1.3979 0.0723,0.4941 -0.7993,0.3301 -0.5093,1.0693 -0.2178,-0.9873 -1.3813,-0.5762 -0.2183,-0.7402 1.8174,-1.0703 0.7998,-0.7402 0.0728,-0.9048 -0.436,-0.2471 -0.5815,-0.0825 -0.3633,0.9053 c 0,0 -0.6079,0.1191 -0.7642,0.1577 -1.9961,1.8394 -6.0293,5.8101 -6.9663,13.3062 0.0371,0.1738 0.6792,1.1816 0.6792,1.1816 l 1.5264,0.9043 1.5264,0.4121 0.6548,0.8232 1.0171,0.7402 0.5815,-0.082 0.436,0.1963 0,0.1328 -0.5811,1.563 -0.4365,0.6582 0.1455,0.3301 -0.3633,1.2324 1.3086,2.3867 1.3081,1.1523 0.582,0.8223 -0.0732,1.7285 0.4365,0.9863 -0.4365,1.8926 c 0,0 -0.0342,-0.0117 0.0215,0.1777 0.0562,0.1895 2.3291,1.4512 2.4736,1.3438 0.144,-0.1094 0.2671,-0.2051 0.2671,-0.2051 l -0.145,-0.4102 0.5811,-0.5762 0.2183,-0.5762 0.9453,-0.3301 0.7266,-1.8105 -0.2178,-0.4922 0.5078,-0.7402 1.0908,-0.248 0.582,-1.3164 -0.1455,-1.6445 0.8721,-1.2344 0.1455,-1.2344 C 20.7331,29.4607 19.5495,28.8513 18.365,28.242"
                 id="path3264"
                 style="color:#000000;fill:url(#radialGradient1508);marker:none;visibility:visible;display:inline;overflow:visible"
                 inkscape:connector-curvature="0" />
            </g>
          </g>
          <g
             id="g3266"
             style="color:#000000;fill:url(#radialGradient3181);marker:none;visibility:visible;display:inline;overflow:visible">
            <g
               id="g3270"
               style="color:#000000;fill:url(#radialGradient3179);marker:none;visibility:visible;display:inline;overflow:visible">
              <path
                 d="m 16.7656,9.5649 0.7266,0.4937 0.582,0 0,-0.5757 -0.7266,-0.3291 -0.582,0.4111"
                 id="path3272"
                 style="color:#000000;fill:url(#radialGradient1516);marker:none;visibility:visible;display:inline;overflow:visible"
                 inkscape:connector-curvature="0" />
            </g>
          </g>
          <g
             id="g3274"
             style="color:#000000;fill:url(#radialGradient3185);marker:none;visibility:visible;display:inline;overflow:visible">
            <g
               id="g3278"
               style="color:#000000;fill:url(#radialGradient3183);marker:none;visibility:visible;display:inline;overflow:visible">
              <path
                 d="m 14.876,8.9072 -0.3638,0.9048 0.7271,0 0.3638,-0.8228 C 15.9166,8.7675 16.2286,8.5444 16.5479,8.331 l 0.7271,0.2471 c 0.4844,0.3291 0.9688,0.6582 1.4536,0.9868 L 19.4561,8.9072 18.6558,8.5781 18.292,7.8374 16.9111,7.6728 16.8383,7.2612 16.184,7.4262 15.8936,8.002 15.5298,7.2613 l -0.145,0.3291 0.0728,0.8228 -0.5816,0.494"
                 id="path3280"
                 style="color:#000000;fill:url(#radialGradient1524);marker:none;visibility:visible;display:inline;overflow:visible"
                 inkscape:connector-curvature="0" />
            </g>
          </g>
          <g
             id="g3282"
             style="color:#000000;fill:url(#radialGradient3191);marker:none;visibility:visible;display:inline;overflow:visible">
            <g
               style="opacity:0.75;color:#000000;fill:url(#radialGradient3187);marker:none;visibility:visible;display:inline;overflow:visible"
               id="g3284">
              <path
                 d=""
                 style="color:#000000;fill:url(#radialGradient1530);marker:none;visibility:visible;display:inline;overflow:visible"
                 id="path3286"
                 inkscape:connector-curvature="0" />
            </g>
            <g
               id="g3288"
               style="color:#000000;fill:url(#radialGradient3189);marker:none;visibility:visible;display:inline;overflow:visible">
              <path
                 d=""
                 id="path3290"
                 style="color:#000000;fill:url(#radialGradient1534);marker:none;visibility:visible;display:inline;overflow:visible"
                 inkscape:connector-curvature="0" />
            </g>
          </g>
          <g
             id="g3292"
             style="color:#000000;fill:url(#radialGradient3197);marker:none;visibility:visible;display:inline;overflow:visible">
            <g
               style="opacity:0.75;color:#000000;fill:url(#radialGradient3193);marker:none;visibility:visible;display:inline;overflow:visible"
               id="g3294">
              <path
                 d=""
                 style="color:#000000;fill:url(#radialGradient1540);marker:none;visibility:visible;display:inline;overflow:visible"
                 id="path3296"
                 inkscape:connector-curvature="0" />
            </g>
            <g
               id="g3298"
               style="color:#000000;fill:url(#radialGradient3195);marker:none;visibility:visible;display:inline;overflow:visible">
              <path
                 d=""
                 id="path3300"
                 style="color:#000000;fill:url(#radialGradient1544);marker:none;visibility:visible;display:inline;overflow:visible"
                 inkscape:connector-curvature="0" />
            </g>
          </g>
          <g
             id="g3302"
             style="color:#000000;fill:url(#radialGradient3201);marker:none;visibility:visible;display:inline;overflow:visible">
            <g
               id="g3306"
               style="color:#000000;fill:url(#radialGradient3199);marker:none;visibility:visible;display:inline;overflow:visible">
              <path
                 d="M 17.4922,6.8496 17.856,6.521 18.5831,6.3564 c 0.498,-0.2422 0.998,-0.4053 1.5264,-0.5762 l -0.29,-0.4937 -0.9385,0.1348 -0.4434,0.4419 -0.731,0.106 -0.6499,0.3052 -0.3159,0.1528 -0.1929,0.2583 0.9443,0.1641"
                 id="path3308"
                 style="color:#000000;fill:url(#radialGradient1552);marker:none;visibility:visible;display:inline;overflow:visible"
                 inkscape:connector-curvature="0" />
            </g>
          </g>
          <g
             id="g3310"
             style="color:#000000;fill:url(#radialGradient3205);marker:none;visibility:visible;display:inline;overflow:visible">
            <g
               id="g3314"
               style="color:#000000;fill:url(#radialGradient3203);marker:none;visibility:visible;display:inline;overflow:visible">
              <path
                 d="m 18.7285,14.6665 0.4365,-0.6582 -0.6548,-0.4932 0.2183,1.1514"
                 id="path3316"
                 style="color:#000000;fill:url(#radialGradient4756);marker:none;visibility:visible;display:inline;overflow:visible"
                 inkscape:connector-curvature="0" />
            </g>
          </g>
        </g>
        <g
           id="g3002">
          <path
             id="path4122"
             d="m 42.975093,23.485534 c 0,10.16582 -8.241178,18.406906 -18.4056,18.406906 -10.165354,0 -18.4060669,-8.241179 -18.4060669,-18.406906 0,-10.165354 8.2407129,-18.4056 18.4060669,-18.4056 10.164422,0 18.4056,8.240246 18.4056,18.4056 l 0,0 z"
             style="fill:none;stroke:url(#radialGradient4132);stroke-miterlimit:4;stroke-opacity:1"
             inkscape:connector-curvature="0" />
        </g>
      </g>
    </g>
  </g>
</svg>
