/* XPM */
static char * close_active_xpm[] = {
"18 23 10 1",
" 	c None",
".	c #8D8D8D",
"+	c #FFFFFF",
"@	c #F3EFEC",
"#	c #EAEAEA",
"$	c #B5B5B5",
"%	c #808080",
"&	c #E9E9E9",
"*	c #C0C0C0",
"=	c #E8E8E8",
"..................",
"++++++++++++++++++",
"@@@@@@@@@@@@@@@@@@",
"##################",
"##################",
"##################",
"##################",
"#####$%#####%$####",
"####+%%%###%%%####",
"####++%%%#%%%#####",
"#####++%%%%%######",
"&&&&&&++%%%&&&&&&&",
"&&&&&&&%%%%%&&&&&&",
"&&&&&&%%%+%%%&&&&&",
"#####%%%#++%%%####",
"####+*%###++%$####",
"&&&&++&&&&&++&&&&&",
"&&&&&&&&&&&&&&&&&&",
"&&&&&&&&&&&&&&&&&&",
"&&&&&&&&&&&&&&&&&&",
"==================",
"==================",
"                  "};
