/* XPM */
static char * maximize_inactive_xpm[] = {
"18 23 10 1",
" 	c None",
".	c #8D8D8D",
"+	c #FFFFFF",
"@	c #F3EFEC",
"#	c #EAEAEA",
"$	c #CCCCCC",
"%	c #F4F4F4",
"&	c #E9E9E9",
"*	c #F3F3F3",
"=	c #E8E8E8",
"..................",
"++++++++++++++++++",
"@@@@@@@@@@@@@@@@@@",
"##################",
"##################",
"##################",
"##################",
"#####$$$$$$$$$####",
"####%$$$$$$$$$####",
"####%$%%%%%%%$####",
"####%$######%$####",
"&&&&*$&&&&&&*$&&&&",
"&&&&*$&&&&&&*$&&&&",
"&&&&*$&&&&&&*$&&&&",
"####%$######%$####",
"####%$$$$$$$$$####",
"&&&&*********&&&&&",
"&&&&&&&&&&&&&&&&&&",
"&&&&&&&&&&&&&&&&&&",
"&&&&&&&&&&&&&&&&&&",
"==================",
"==================",
"                  "};
