/* XPM */
static char * menu_inactive_xpm[] = {
"23 23 10 1",
" 	c None",
".	c #8D8D8D",
"+	c #FFFFFF",
"@	c #F3EFEC",
"#	c #EAEAEA",
"$	c #CCCCCC",
"%	c #E9E9E9",
"&	c #F3F3F3",
"*	c #F4F4F4",
"=	c #E8E8E8",
".......................",
"+++++++++++++++++++++++",
"@@@@@@@@@@@@@@@@@@@@@@@",
"#######################",
"#######################",
"#######################",
"#######################",
"#######################",
"#######################",
"#######################",
"###########$#####$#####",
"%%%%%%%%%%$$$%%%$$$%%%%",
"%%%%%%%%%&&$$$%$$$%%%%%",
"%%%%%%%%%%&&$$$$$%%%%%%",
"###########**$$$#######",
"############**$########",
"%%%%%%%%%%%%%&%%%%%%%%%",
"%%%%%%%%%%%%%%%%%%%%%%%",
"%%%%%%%%%%%%%%%%%%%%%%%",
"%%%%%%%%%%%%%%%%%%%%%%%",
"=======================",
"=======================",
"                       "};
