/* XPM */
static char * close_inactive_xpm[] = {
"18 23 12 1",
" 	c None",
".	c #8D8D8D",
"+	c #FFFFFF",
"@	c #F3EFEC",
"#	c #EAEAEA",
"$	c #DBDBDB",
"%	c #CCCCCC",
"&	c #F4F4F4",
"*	c #E9E9E9",
"=	c #F3F3F3",
"-	c #E0E0E0",
";	c #E8E8E8",
"..................",
"++++++++++++++++++",
"@@@@@@@@@@@@@@@@@@",
"##################",
"##################",
"##################",
"##################",
"#####$%#####%$####",
"####&%%%###%%%####",
"####&&%%%#%%%#####",
"#####&&%%%%%######",
"******==%%%*******",
"*******%%%%%******",
"******%%%=%%%*****",
"#####%%%#&&%%%####",
"####&-%###&&%$####",
"****==*****==*****",
"******************",
"******************",
"******************",
";;;;;;;;;;;;;;;;;;",
";;;;;;;;;;;;;;;;;;",
"                  "};
