/* XPM */
static char * hide_active_xpm[] = {
"18 23 8 1",
" 	c None",
".	c #8D8D8D",
"+	c #FFFFFF",
"@	c #F3EFEC",
"#	c #EAEAEA",
"$	c #E9E9E9",
"%	c #808080",
"&	c #E8E8E8",
"..................",
"++++++++++++++++++",
"@@@@@@@@@@@@@@@@@@",
"##################",
"##################",
"##################",
"##################",
"##################",
"##################",
"##################",
"##################",
"$$$$$$$$$$$$$$$$$$",
"$$$$$$$$$$$$$$$$$$",
"$$$$$$$$$$$$$$$$$$",
"#####%%%%%%%%%####",
"####+%%%%%%%%%####",
"$$$$+++++++++$$$$$",
"$$$$$$$$$$$$$$$$$$",
"$$$$$$$$$$$$$$$$$$",
"$$$$$$$$$$$$$$$$$$",
"&&&&&&&&&&&&&&&&&&",
"&&&&&&&&&&&&&&&&&&",
"                  "};
