<?xml version="1.0" encoding="UTF-8" standalone="no"?>
<!-- Created with Inkscape (http://www.inkscape.org/) -->
<svg id="svg7384" xmlns:rdf="http://www.w3.org/1999/02/22-rdf-syntax-ns#" xmlns="http://www.w3.org/2000/svg" height="16" width="16" version="1.1" xmlns:cc="http://creativecommons.org/ns#" xmlns:dc="http://purl.org/dc/elements/1.1/">
 <metadata id="metadata90">
  <rdf:RDF>
   <cc:Work rdf:about="">
    <dc:format>image/svg+xml</dc:format>
    <dc:type rdf:resource="http://purl.org/dc/dcmitype/StillImage"/>
    <dc:title>Gnome Symbolic Icon Theme</dc:title>
   </cc:Work>
  </rdf:RDF>
 </metadata>
 <title id="title9167">Gnome Symbolic Icon Theme</title>
 <g id="layer12" transform="translate(-140 -668)">
  <path id="path3613-6-6-0-8-4" style="block-progression:tb;text-indent:0;color:#000000;text-transform:none;fill:#bebebe" d="m149 679 1-0.00001c0.26531-0.00003 0.53058-0.0931 0.71875-0.28124l3-3 0.28126-0.28125v-0.87499l-0.28126-0.28126-3-3c-0.18818-0.18821-0.45347-0.28121-0.71876-0.28121l-1-0.00001v1c-0.00004 0.26531 0.0931 0.53059 0.28121 0.71877l2.2812 2.2812-2.2812 2.2812c-0.18815 0.18817-0.28125 0.45345-0.28125 0.71875v1z"/>
  <path id="path35770-4-9-4" style="block-progression:tb;text-indent:0;color:#000000;text-transform:none;fill:#bebebe" d="m145.5 674c-1.9212 0-3.5 1.5788-3.5 3.5s1.5788 3.5 3.5 3.5h0.5v-2h-0.5c-0.84027 0-1.5-0.65973-1.5-1.5s0.65973-1.5 1.5-1.5h6.5v-2h-6.5z"/>
 </g>
</svg>
