<?xml version="1.0" encoding="UTF-8" standalone="no"?>
<!-- Created with Inkscape (http://www.inkscape.org/) -->
<svg id="svg7384" xmlns:rdf="http://www.w3.org/1999/02/22-rdf-syntax-ns#" xmlns="http://www.w3.org/2000/svg" height="16" width="16" version="1.1" xmlns:cc="http://creativecommons.org/ns#" xmlns:dc="http://purl.org/dc/elements/1.1/">
 <metadata id="metadata90">
  <rdf:RDF>
   <cc:Work rdf:about="">
    <dc:format>image/svg+xml</dc:format>
    <dc:type rdf:resource="http://purl.org/dc/dcmitype/StillImage"/>
    <dc:title>Gnome Symbolic Icon Theme</dc:title>
   </cc:Work>
  </rdf:RDF>
 </metadata>
 <title id="title9167">Gnome Symbolic Icon Theme</title>
 <g id="layer12" transform="translate(-240 -666)">
  <path id="path15403" style="block-progression:tb;text-indent:0;color:#000000;text-transform:none;fill:#bebebe" d="m250 678.04 1-0.00001c0.26531-0.00003 0.53058-0.0931 0.71876-0.28124l3-3 0.28126-0.28125v-0.87499l-0.28126-0.28126-3-3c-0.18818-0.18821-0.45347-0.28121-0.71876-0.28121l-1-0.00001v1c-0.00004 0.26531 0.0931 0.53059 0.28121 0.71877l2.2812 2.2812-2.2812 2.2812c-0.18815 0.18817-0.28125 0.45345-0.28125 0.71875v1z"/>
  <path id="path15405" style="block-progression:tb;text-indent:0;color:#000000;text-transform:none;fill:#bebebe" d="m242.19 673v2h10.625v-2h-10.625z"/>
  <path id="path15407" style="block-progression:tb;text-indent:0;color:#000000;text-transform:none;fill:#bebebe" d="m245 678.04-1-0.00001c-0.2653-0.00003-0.53058-0.0931-0.71875-0.28124l-3-3-0.28125-0.28125v-0.87499l0.28125-0.28126 3-3c0.18818-0.18821 0.45347-0.28121 0.71875-0.28121l1-0.00001v1c0.00004 0.26531-0.0931 0.53059-0.2812 0.71877l-2.2813 2.2812 2.2812 2.2812c0.18815 0.18817 0.28124 0.45345 0.28125 0.71875v1z"/>
 </g>
</svg>
