<?xml version="1.0" encoding="UTF-8" standalone="no"?>
<!-- Created with Inkscape (http://www.inkscape.org/) -->
<svg id="svg7384" xmlns:rdf="http://www.w3.org/1999/02/22-rdf-syntax-ns#" xmlns="http://www.w3.org/2000/svg" height="16" width="16" version="1.1" xmlns:cc="http://creativecommons.org/ns#" xmlns:dc="http://purl.org/dc/elements/1.1/">
 <metadata id="metadata90">
  <rdf:RDF>
   <cc:Work rdf:about="">
    <dc:format>image/svg+xml</dc:format>
    <dc:type rdf:resource="http://purl.org/dc/dcmitype/StillImage"/>
    <dc:title>Gnome Symbolic Icon Theme</dc:title>
   </cc:Work>
  </rdf:RDF>
 </metadata>
 <title id="title9167">Gnome Symbolic Icon Theme</title>
 <g id="layer12" transform="translate(-260 -666)">
  <path id="path15415" style="block-progression:tb;text-indent:0;color:#000000;text-transform:none;fill:#bebebe" d="m264 676 0.00001 1c0.00007 0.26531 0.0931 0.53059 0.28121 0.71877l3 3 0.28126 0.28125h0.87498l0.28126-0.28126 3-3c0.1882-0.18817 0.28121-0.45348 0.28121-0.71876v-0.99999l-0.99999-0.00001c-0.26531-0.00007-0.5306 0.0931-0.71878 0.28121l-2.2812 2.2813-2.2812-2.2812c-0.19-0.19-0.45-0.28-0.72-0.28h-1z"/>
  <path id="path15417" style="block-progression:tb;text-indent:0;color:#000000;text-transform:none;fill:#bebebe" d="m267 668v10.625h2v-10.625h-2z"/>
  <path id="path15419" style="block-progression:tb;text-indent:0;color:#000000;text-transform:none;fill:#bebebe" d="m264 671 0.00002-1c0.00003-0.26531 0.0931-0.53058 0.28123-0.71875l3-3 0.28126-0.28125h0.87499l0.28125 0.28126 3 3c0.18819 0.18821 0.28121 0.45347 0.28121 0.71875l0.00001 1h-0.99999c-0.26532 0.00003-0.5306-0.0931-0.71878-0.28122l-2.2812-2.2813-2.2812 2.2812c-0.19 0.19-0.45 0.28-0.72 0.28l-0.99999-0.00001z"/>
 </g>
</svg>
